<?xml version="1.0" standalone="no"?>
<!DOCTYPE svg PUBLIC "-//W3C//DTD SVG 20010904//EN"
 "http://www.w3.org/TR/2001/REC-SVG-20010904/DTD/svg10.dtd">
<svg version="1.0" xmlns="http://www.w3.org/2000/svg"
 width="260.000000pt" height="260.000000pt" viewBox="0 0 260.000000 260.000000"
 preserveAspectRatio="xMidYMid meet">
<metadata>
Created by potrace 1.11, written by Peter Selinger 2001-2013
</metadata>
<g transform="translate(0.000000,260.000000) scale(0.100000,-0.100000)"
fill="#000000" stroke="none">
<path d="M394 2478 c3 -51 8 -212 11 -358 9 -458 15 -749 20 -925 3 -93 5
-266 6 -383 2 -232 6 -211 -60 -285 -14 -15 -26 -34 -27 -43 -4 -24 32 -133
56 -171 17 -29 25 -33 63 -33 24 0 48 -5 55 -12 22 -22 13 -106 -22 -215 l-7
-23 350 0 c229 0 352 4 356 10 4 6 52 34 108 62 82 41 113 52 160 54 44 2 65
9 86 27 23 19 54 28 142 42 63 10 120 19 127 19 7 1 20 -14 27 -32 14 -31 13
-33 -8 -41 -12 -5 -56 -14 -97 -21 -163 -26 -267 -53 -325 -83 -35 -19 -52
-33 -43 -35 9 -2 34 6 55 16 21 11 63 27 93 36 69 21 330 67 340 61 5 -3 13
-19 19 -35 12 -37 17 -34 -109 -59 -88 -18 -91 -19 -44 -20 28 -1 76 4 108 10
42 7 62 7 69 0 11 -11 527 -17 527 -6 0 3 -18 51 -39 107 -21 57 -41 114 -42
128 l-4 25 113 3 c104 2 112 4 112 22 0 24 -19 25 -86 5 -27 -8 -62 -15 -79
-15 -60 0 -73 9 -91 64 -9 28 -37 100 -62 161 -44 104 -50 113 -141 204 -72
72 -117 107 -181 142 -371 201 -391 214 -386 234 21 89 60 205 76 227 11 15
20 34 20 43 0 9 9 43 20 76 11 33 22 73 24 89 2 16 9 37 16 45 7 9 10 25 6 41
-12 45 3 110 28 122 13 6 22 20 24 36 1 15 -2 25 -7 22 -11 -7 -5 183 8 217
27 69 10 151 -61 304 -10 24 -17 46 -15 50 7 11 -31 55 -69 81 -18 12 -92 38
-165 58 -158 43 -164 43 -164 24 0 -23 -27 -40 -47 -29 -23 12 -23 36 0 42 9
3 -130 5 -310 6 l-328 1 0 -56 0 -57 38 7 c226 37 412 59 412 47 0 -5 -29 -22
-65 -40 -78 -37 -184 -114 -214 -156 -89 -123 -105 -175 -91 -293 21 -179 30
-213 68 -249 29 -28 34 -38 29 -63 -4 -16 -3 -30 2 -30 5 0 12 -37 16 -82 4
-46 11 -88 16 -94 5 -7 11 -26 14 -43 3 -27 1 -31 -22 -31 -15 0 -23 -5 -20
-12 2 -7 0 -21 -4 -30 -6 -10 -5 -19 1 -23 5 -3 10 -23 10 -44 0 -22 6 -44 15
-51 8 -7 15 -24 15 -39 0 -14 4 -41 10 -60 9 -31 7 -36 -38 -80 -49 -47 -91
-136 -108 -227 -6 -31 -25 -56 -108 -136 -56 -54 -105 -98 -111 -98 -6 0 -11
63 -13 163 -7 395 -22 1207 -28 1480 -6 248 -9 297 -22 297 -11 0 -13 -16 -8
-92z m806 62 c12 -8 10 -10 -10 -9 -14 0 -34 4 -45 9 -17 7 -16 9 10 9 17 0
37 -4 45 -9z m-52 -546 c40 2 62 -1 74 -11 13 -12 29 -13 80 -5 35 5 107 7
162 5 99 -4 126 -14 126 -46 0 -8 7 -20 15 -27 16 -13 20 -84 9 -128 l-7 -23
-24 22 c-21 21 -27 22 -56 11 -19 -7 -40 -12 -47 -12 -8 0 -33 -9 -57 -21 -61
-30 -77 -67 -64 -150 6 -35 11 -67 11 -70 0 -4 12 -9 28 -11 15 -3 34 -7 42
-9 9 -3 15 3 16 16 1 11 2 27 3 36 1 19 65 51 86 43 26 -10 29 25 6 57 -26 35
-8 39 26 7 29 -27 42 -14 37 38 -1 19 2 34 7 34 17 0 9 -144 -13 -242 -12 -54
-25 -98 -30 -98 -5 0 -6 -5 -3 -10 10 -16 -17 -69 -32 -63 -9 4 -11 0 -7 -11
10 -26 -4 -19 -44 23 -52 55 -58 63 -71 103 -14 41 -41 71 -41 45 0 -9 5 -19
10 -22 19 -12 10 -36 -29 -75 -37 -37 -59 -45 -86 -28 -20 12 -56 1 -89 -27
-19 -16 -49 -33 -67 -39 -40 -14 -59 -40 -41 -58 8 -8 15 -9 20 -3 37 52 228
76 292 36 27 -16 29 -20 14 -23 -11 -2 -25 3 -32 12 -9 10 -11 11 -6 1 5 -11
2 -13 -14 -9 -12 4 -25 2 -28 -3 -3 -5 -40 -9 -82 -9 -87 0 -112 -9 -87 -30
13 -11 43 -16 120 -20 11 0 23 -6 26 -12 6 -9 12 -8 23 1 9 8 16 9 16 5 0 -5
9 -15 21 -22 17 -11 26 -10 55 7 19 12 37 21 40 21 12 0 2 -39 -14 -53 -15
-14 -25 -15 -55 -6 -21 5 -61 9 -90 7 -43 -2 -54 -7 -62 -25 -5 -13 -16 -25
-23 -28 -7 -3 -10 0 -6 6 4 7 -10 9 -48 4 -46 -6 -56 -4 -61 9 -5 14 -11 15
-27 6 -15 -8 -20 -8 -20 2 0 7 -10 18 -22 23 -13 6 -23 19 -24 30 -3 59 -5 65
-20 65 -11 0 -14 5 -10 16 9 24 -23 84 -45 84 -11 0 -19 5 -19 10 0 6 4 10 9
10 12 0 -3 65 -34 145 -23 61 -26 79 -21 140 10 119 24 207 35 218 6 6 11 20
11 31 0 27 22 86 32 86 4 0 8 -7 8 -15 0 -18 16 -20 23 -2 3 6 6 0 6 -15 1
-32 17 -37 26 -9 3 11 23 34 43 52 31 27 38 30 40 16 3 -14 13 -17 60 -13z
m362 -333 c0 -6 -4 -13 -10 -16 -5 -3 -10 1 -10 9 0 9 5 16 10 16 6 0 10 -4
10 -9z m-648 -303 c8 -18 37 -82 64 -143 59 -133 100 -202 125 -210 11 -4 19
-15 19 -26 0 -11 6 -19 13 -18 6 1 23 -2 37 -8 64 -28 115 -48 120 -49 3 0 16
-3 30 -7 14 -3 46 -9 73 -12 40 -5 47 -10 47 -28 1 -19 7 -15 45 26 24 26 46
57 49 70 7 32 -2 -84 -15 -183 -6 -47 -10 -94 -10 -105 0 -11 1 -36 0 -57 0
-31 3 -36 20 -31 13 3 21 -1 26 -16 3 -12 13 -21 21 -21 8 0 14 -4 14 -10 0
-5 5 -10 10 -10 6 0 10 6 10 14 0 8 7 16 15 20 20 7 19 34 -1 38 -14 3 -13 6
5 22 l21 19 0 -46 c0 -26 -4 -47 -9 -47 -17 0 -23 -42 -10 -66 10 -20 9 -30
-7 -66 -24 -55 -46 -87 -61 -88 -6 0 -21 12 -33 28 -12 15 -23 27 -24 27 -8 0
-36 -35 -36 -45 0 -6 -4 -8 -10 -5 -5 3 -10 1 -10 -6 0 -9 -3 -10 -10 -3 -8 8
-23 8 -49 1 -46 -12 -43 -13 -156 67 -55 39 -89 70 -89 80 1 9 -1 16 -5 16 -4
0 -23 15 -43 34 -41 38 -77 105 -119 220 -17 44 -43 92 -59 109 -39 40 -45 79
-30 178 12 76 7 318 -7 355 -11 28 13 13 29 -18z m418 -315 c0 -4 -6 -8 -15
-9 -16 -2 -19 13 -8 42 6 15 7 15 14 -5 5 -11 9 -24 9 -28z m-40 22 c0 -8 -7
-15 -15 -15 -8 0 -15 -5 -15 -12 0 -6 -2 -9 -5 -7 -2 3 -2 15 2 27 6 25 33 30
33 7z m298 -404 c17 -12 32 -29 32 -37 0 -20 -20 -17 -21 4 0 14 -2 14 -9 -3
-5 -11 -9 -16 -9 -11 -1 5 -10 1 -20 -8 -18 -17 -19 -17 -25 1 -5 17 -9 77 -7
97 1 6 7 3 14 -6 6 -8 27 -25 45 -37z m189 -167 c15 -33 9 -44 -24 -44 -21 0
-24 3 -19 23 3 12 6 28 6 35 0 22 25 13 37 -14z m29 -72 c6 -4 14 -17 18 -29
8 -26 -9 -37 -73 -47 l-44 -7 7 32 c3 18 11 38 17 46 12 14 57 17 75 5z m-686
-62 c0 -5 -4 -10 -10 -10 -5 0 -10 5 -10 10 0 6 5 10 10 10 6 0 10 -4 10 -10z
m67 -42 c40 -28 40 -31 8 -46 -37 -17 -43 -15 -60 18 -27 52 -3 65 52 28z
m671 -15 c2 -24 -1 -33 -16 -37 -32 -11 -185 -36 -190 -32 -2 2 7 22 19 44 21
37 29 41 79 50 89 16 104 12 108 -25z m-348 11 c0 -8 -5 -12 -10 -9 -6 4 -8
11 -5 16 9 14 15 11 15 -7z m-224 -65 c19 -11 34 -22 34 -25 0 -5 -121 -66
-125 -62 -10 12 -25 49 -25 62 0 16 44 45 69 46 7 0 29 -9 47 -21z m111 -55
c24 -9 43 -20 43 -24 0 -11 -199 -102 -209 -96 -5 3 -14 19 -19 36 -11 30 -11
30 60 65 40 19 74 35 77 35 3 0 25 -7 48 -16z"/>
<path d="M997 1754 c-50 -48 -39 -58 47 -43 37 6 94 9 127 7 91 -7 71 31 -29
53 -103 23 -104 23 -145 -17z"/>
<path d="M1105 1703 c-33 -7 -75 -25 -75 -32 0 -8 44 -27 108 -46 32 -10 52
-21 52 -30 0 -21 16 -18 40 7 26 28 26 41 0 33 -14 -4 -20 -2 -20 8 0 24 -29
28 -58 9 -25 -16 -26 -16 -18 3 23 56 21 59 -29 48z"/>
<path d="M1170 1690 c0 -5 5 -10 10 -10 6 0 10 5 10 10 0 6 -4 10 -10 10 -5 0
-10 -4 -10 -10z"/>
<path d="M1248 1413 c7 -3 16 -2 19 1 4 3 -2 6 -13 5 -11 0 -14 -3 -6 -6z"/>
<path d="M1245 880 c3 -5 11 -10 16 -10 6 0 7 5 4 10 -3 6 -11 10 -16 10 -6 0
-7 -4 -4 -10z"/>
<path d="M1540 450 c0 -5 5 -10 10 -10 6 0 10 5 10 10 0 6 -4 10 -10 10 -5 0
-10 -4 -10 -10z"/>
<path d="M1342 419 c1 -13 8 -23 13 -21 15 3 12 35 -3 40 -9 3 -13 -3 -10 -19z"/>
<path d="M1396 391 c-3 -5 1 -14 9 -21 12 -10 15 -10 15 3 0 19 -16 31 -24 18z"/>
<path d="M210 2504 c0 -8 5 -12 10 -9 6 3 10 10 10 16 0 5 -4 9 -10 9 -5 0
-10 -7 -10 -16z"/>
<path d="M215 2417 c-4 -10 -5 -21 -1 -24 10 -10 18 4 13 24 -4 17 -4 17 -12
0z"/>
<path d="M220 2240 c0 -24 15 -27 24 -4 9 22 8 24 -9 24 -8 0 -15 -9 -15 -20z"/>
<path d="M220 2099 c0 -18 2 -19 15 -9 8 7 15 16 15 21 0 5 -7 9 -15 9 -9 0
-15 -9 -15 -21z"/>
<path d="M230 1813 c0 -18 5 -24 17 -21 26 5 28 34 3 41 -16 4 -20 0 -20 -20z"/>
<path d="M235 1690 c-7 -12 2 -30 16 -30 12 0 12 27 0 35 -5 3 -12 1 -16 -5z"/>
<path d="M740 1572 c0 -9 9 -23 20 -30 16 -10 20 -10 20 2 0 25 -12 46 -26 46
-8 0 -14 -8 -14 -18z"/>
<path d="M247 1413 c-4 -3 -7 -18 -7 -32 1 -25 1 -25 15 -7 23 30 15 63 -8 39z"/>
<path d="M240 1259 c0 -14 5 -19 17 -17 26 5 29 38 4 38 -15 0 -21 -6 -21 -21z"/>
<path d="M243 1165 c-3 -9 -3 -19 1 -22 7 -7 36 16 36 28 0 15 -30 10 -37 -6z"/>
<path d="M257 1013 c-11 -10 -8 -53 3 -53 10 0 30 32 30 49 0 12 -23 15 -33 4z"/>
<path d="M260 860 c0 -5 4 -10 9 -10 6 0 13 5 16 10 3 6 -1 10 -9 10 -9 0 -16
-4 -16 -10z"/>
<path d="M250 571 c0 -11 5 -23 11 -27 16 -9 30 18 17 33 -15 19 -28 16 -28
-6z"/>
<path d="M260 481 c0 -17 5 -31 10 -31 6 0 10 11 10 24 0 14 -4 28 -10 31 -6
4 -10 -7 -10 -24z"/>
<path d="M249 408 c-53 -57 -58 -75 -31 -105 14 -16 27 -19 75 -15 56 4 57 4
57 35 0 55 -23 137 -39 137 -8 0 -36 -24 -62 -52z"/>
<path d="M54 163 c-10 -15 -20 -52 -22 -80 -4 -48 -3 -53 16 -53 19 0 21 7 24
78 2 42 3 78 2 80 -1 1 -9 -10 -20 -25z"/>
<path d="M156 121 c-3 -9 -8 -33 -12 -53 l-6 -38 142 0 143 0 -6 41 c-3 22 -8
44 -12 47 -3 4 -34 7 -68 8 -34 0 -64 2 -67 3 -3 1 -29 3 -57 5 -42 3 -54 0
-57 -13z"/>
</g>
</svg>
