<?xml version="1.0" standalone="no"?>
<!DOCTYPE svg PUBLIC "-//W3C//DTD SVG 20010904//EN"
 "http://www.w3.org/TR/2001/REC-SVG-20010904/DTD/svg10.dtd">
<svg version="1.0" xmlns="http://www.w3.org/2000/svg"
 width="16.000000pt" height="16.000000pt" viewBox="0 0 16.000000 16.000000"
 preserveAspectRatio="xMidYMid meet">
<metadata>
Created by potrace 1.11, written by Peter Selinger 2001-2013
</metadata>
<g transform="translate(0.000000,16.000000) scale(0.006154,-0.006154)"
fill="#000000" stroke="none">
<path d="M394 2478 c3 -51 8 -212 11 -358 9 -458 15 -749 20 -925 3 -93 5
-266 6 -383 2 -232 6 -211 -60 -285 -14 -15 -26 -34 -27 -43 -4 -24 32 -133
56 -171 17 -29 25 -33 63 -33 24 0 48 -5 55 -12 22 -22 13 -106 -22 -215 l-7
-23 350 0 c229 0 352 4 356 10 4 6 52 34 108 62 82 41 113 52 160 54 44 2 65
9 86 27 23 19 54 28 142 42 63 10 120 19 127 19 7 1 20 -14 27 -32 14 -31 13
-33 -8 -41 -12 -5 -56 -14 -97 -21 -163 -26 -267 -53 -325 -83 -35 -19 -52
-33 -43 -35 9 -2 34 6 55 16 21 11 63 27 93 36 69 21 330 67 340 61 5 -3 13
-19 19 -35 12 -37 17 -34 -109 -59 -88 -18 -91 -19 -44 -20 28 -1 76 4 108 10
42 7 62 7 69 0 11 -11 527 -17 527 -6 0 3 -18 51 -39 107 -21 57 -41 114 -42
128 l-4 25 113 3 c104 2 112 4 112 22 0 24 -19 25 -86 5 -27 -8 -62 -15 -79
-15 -60 0 -73 9 -91 64 -9 28 -37 100 -62 161 -44 104 -50 113 -141 204 -72
72 -117 107 -181 142 -371 201 -391 214 -386 234 21 89 60 205 76 227 11 15
20 34 20 43 0 9 9 43 20 76 11 33 22 73 24 89 2 16 9 37 16 45 7 9 10 25 6 41
-12 45 3 110 28 122 13 6 22 20 24 36 1 15 -2 25 -7 22 -11 -7 -5 183 8 217
27 69 10 151 -61 304 -10 24 -17 46 -15 50 7 11 -31 55 -69 81 -18 12 -92 38
-165 58 -158 43 -164 43 -164 24 0 -23 -27 -40 -47 -29 -23 12 -23 36 0 42 9
3 -130 5 -310 6 l-328 1 0 -56 0 -57 38 7 c226 37 412 59 412 47 0 -5 -29 -22
-65 -40 -78 -37 -184 -114 -214 -156 -89 -123 -105 -175 -91 -293 21 -179 30
-213 68 -249 29 -28 34 -38 29 -63 -4 -16 -3 -30 2 -30 5 0 12 -37 16 -82 4
-46 11 -88 16 -94 5 -7 12 -26 14 -44 4 -30 2 -32 -25 -28 -24 4 -27 2 -20
-12 5 -9 4 -23 -1 -32 -6 -11 -6 -19 1 -23 5 -3 10 -23 10 -44 0 -22 6 -44 15
-51 8 -7 15 -24 15 -39 0 -14 4 -41 10 -60 9 -31 7 -36 -38 -80 -49 -47 -91
-136 -108 -227 -6 -31 -25 -56 -108 -136 -56 -54 -105 -98 -111 -98 -6 0 -11
63 -13 163 -7 395 -22 1207 -28 1480 -6 248 -9 297 -22 297 -11 0 -13 -16 -8
-92z m806 62 c12 -8 10 -10 -10 -9 -14 0 -34 4 -45 9 -17 7 -16 9 10 9 17 0
37 -4 45 -9z m-52 -546 c40 2 62 -1 74 -11 13 -12 29 -13 80 -5 35 5 107 7
162 5 99 -4 126 -14 126 -46 0 -8 7 -20 15 -27 16 -13 22 -126 6 -116 -4 3 -6
-6 -3 -19 2 -14 8 -25 13 -25 5 0 9 -33 9 -72 0 -77 -37 -268 -52 -268 -5 0
-6 -5 -3 -10 10 -16 -17 -69 -32 -63 -9 4 -11 0 -7 -11 10 -26 -4 -19 -44 23
-52 55 -58 63 -71 103 -14 41 -41 71 -41 45 0 -9 5 -19 10 -22 19 -12 10 -36
-29 -75 -37 -37 -59 -45 -86 -28 -20 12 -56 1 -89 -27 -19 -16 -49 -33 -67
-39 -40 -14 -59 -40 -41 -58 8 -8 15 -9 20 -3 37 52 228 76 292 36 27 -16 29
-20 14 -23 -11 -2 -25 3 -32 12 -9 10 -11 11 -6 1 5 -11 2 -13 -14 -9 -12 4
-25 2 -28 -3 -3 -5 -40 -9 -82 -9 -87 0 -112 -9 -87 -30 13 -11 43 -16 120
-20 11 0 23 -6 26 -12 6 -9 12 -8 23 1 9 8 16 9 16 5 0 -5 9 -15 21 -22 17
-11 26 -10 55 7 19 12 37 21 40 21 12 0 2 -39 -14 -53 -15 -13 -25 -15 -53 -7
-83 24 -171 6 -156 -32 3 -8 -5 -14 -21 -15 -19 -1 -22 1 -11 8 9 7 -7 7 -45
3 -51 -6 -58 -5 -53 9 4 12 1 15 -15 12 -12 -3 -25 -10 -30 -17 -5 -9 -8 -6
-8 10 0 13 -6 22 -15 22 -8 0 -15 5 -15 11 0 5 -5 7 -11 4 -6 -4 -9 2 -8 17 5
55 -1 78 -18 71 -13 -5 -15 -2 -10 11 10 26 -21 86 -44 86 -11 0 -19 5 -19 11
0 6 7 8 18 4 14 -5 15 -4 5 6 -7 7 -13 22 -13 34 0 11 -14 56 -31 100 -28 71
-30 88 -25 150 10 120 24 207 35 218 6 6 11 20 11 31 0 27 22 86 32 86 4 0 8
-7 8 -15 0 -21 18 -19 23 3 3 9 5 2 6 -15 1 -36 16 -44 26 -14 3 11 23 34 43
52 31 27 38 30 40 16 3 -14 13 -17 60 -13z m-286 -636 c8 -18 37 -82 64 -143
59 -134 97 -196 129 -213 14 -7 25 -18 25 -25 0 -8 -4 -7 -11 3 -9 13 -10 13
-6 0 2 -9 14 -14 26 -13 12 2 20 -1 16 -6 -3 -5 9 -13 27 -16 18 -4 49 -15 68
-25 19 -10 40 -19 45 -19 6 -1 19 -4 30 -6 11 -2 41 -7 68 -10 40 -5 47 -10
47 -28 1 -19 7 -15 45 26 24 26 46 60 48 75 2 15 5 3 6 -26 1 -38 -2 -51 -11
-46 -6 4 -8 3 -5 -4 4 -5 2 -52 -4 -104 -6 -51 -10 -102 -10 -113 0 -11 1 -36
0 -57 0 -31 3 -36 20 -31 13 3 21 -1 26 -16 3 -12 11 -21 17 -21 6 0 17 -8 24
-18 12 -15 13 -14 14 10 0 17 5 27 12 25 7 -1 14 8 16 20 3 18 0 22 -14 16
-16 -6 -16 -4 2 19 l19 26 3 -44 c2 -30 -2 -49 -12 -60 -17 -17 -22 -69 -6
-59 17 10 11 -29 -10 -78 -22 -50 -36 -64 -43 -45 -2 7 -2 3 0 -9 5 -32 -20
-29 -47 5 -12 15 -23 27 -24 27 -8 0 -36 -35 -36 -45 0 -6 -4 -8 -10 -5 -5 3
-10 1 -10 -6 0 -8 -4 -8 -13 -1 -9 8 -20 8 -38 -1 -30 -16 -53 -10 -104 26
-22 15 -66 46 -98 68 -40 28 -57 46 -53 56 4 11 2 13 -9 9 -8 -3 -14 -1 -12 3
1 5 -12 22 -30 39 -36 35 -73 105 -114 216 -17 44 -43 92 -59 109 -16 16 -32
43 -35 59 -8 33 3 148 14 148 6 0 -4 248 -13 308 -3 17 -2 32 2 32 4 0 15 -15
24 -32z m418 -315 c0 -4 -6 -8 -15 -9 -16 -2 -19 13 -8 42 6 15 7 15 14 -5 5
-11 9 -24 9 -28z m-40 22 c0 -8 -7 -15 -16 -15 -8 0 -12 -4 -9 -10 3 -5 2 -10
-4 -10 -5 0 -13 5 -16 10 -3 6 -1 10 4 10 6 0 11 7 11 15 0 8 7 15 15 15 8 0
15 -7 15 -15z m298 -404 c17 -12 32 -29 32 -37 0 -20 -20 -17 -21 4 0 14 -2
14 -9 -3 -5 -11 -9 -16 -9 -11 -1 5 -10 1 -20 -8 -18 -17 -19 -17 -25 1 -5 17
-9 77 -7 97 1 6 7 3 14 -6 6 -8 27 -25 45 -37z m5 -86 c-3 -9 -8 -14 -10 -11
-3 3 -2 9 2 15 9 16 15 13 8 -4z m182 -77 c13 -37 11 -41 -17 -49 -30 -8 -31
-7 -22 40 8 36 28 41 39 9z m31 -76 c6 -4 14 -17 18 -29 8 -27 -9 -38 -76 -47
l-47 -7 11 33 c6 18 15 39 21 46 10 13 55 16 73 4z m-686 -57 c10 -12 10 -15
-4 -15 -9 0 -16 7 -16 15 0 8 2 15 4 15 2 0 9 -7 16 -15z m67 -47 c40 -28 40
-31 8 -46 -37 -17 -43 -15 -60 18 -27 52 -3 65 52 28z m671 -15 c2 -24 -1 -33
-16 -37 -19 -6 -180 -36 -194 -36 -4 0 5 20 20 44 25 40 32 45 82 54 89 16
104 12 108 -25z m-348 11 c0 -8 -5 -12 -10 -9 -6 4 -8 11 -5 16 9 14 15 11 15
-7z m-224 -65 c19 -11 34 -22 34 -25 0 -5 -121 -66 -125 -62 -10 12 -25 49
-25 62 0 16 44 45 69 46 7 0 29 -9 47 -21z m111 -55 c24 -9 43 -20 43 -24 0
-11 -199 -102 -209 -96 -5 3 -14 19 -19 36 -11 30 -11 30 60 65 40 19 74 35
77 35 3 0 25 -7 48 -16z"/>
<path d="M1520 1790 c-8 -5 -24 -10 -34 -10 -39 0 -106 -41 -121 -74 -13 -27
-14 -44 -6 -97 6 -35 11 -67 11 -70 0 -4 12 -9 28 -11 15 -3 33 -7 41 -9 10
-3 15 6 17 31 1 19 7 36 13 38 6 2 9 7 6 11 -2 5 7 7 20 5 14 -1 25 2 25 7 0
5 10 8 22 6 32 -3 33 25 3 62 -21 25 -23 30 -8 25 10 -4 28 -16 40 -27 27 -24
33 -20 38 21 8 59 -54 119 -95 92z m-12 -132 c-2 -6 -10 -14 -16 -16 -7 -2
-10 2 -6 12 7 18 28 22 22 4z"/>
<path d="M997 1754 c-50 -48 -39 -58 47 -43 37 6 94 9 127 7 91 -7 71 31 -29
53 -103 23 -104 23 -145 -17z"/>
<path d="M1105 1703 c-33 -7 -75 -25 -75 -32 0 -8 63 -35 122 -51 33 -8 45
-16 41 -26 -8 -21 14 -17 37 8 26 28 26 41 0 33 -14 -4 -20 -2 -20 8 0 22 -29
29 -53 12 -31 -22 -41 -18 -23 7 29 41 21 52 -29 41z m-21 -39 c5 -14 4 -15
-9 -4 -17 14 -19 20 -6 20 5 0 12 -7 15 -16z"/>
<path d="M1165 1690 c3 -5 13 -10 21 -10 8 0 12 5 9 10 -3 6 -13 10 -21 10 -8
0 -12 -4 -9 -10z"/>
<path d="M1248 1413 c7 -3 16 -2 19 1 4 3 -2 6 -13 5 -11 0 -14 -3 -6 -6z"/>
<path d="M1245 880 c3 -5 11 -10 16 -10 6 0 7 5 4 10 -3 6 -11 10 -16 10 -6 0
-7 -4 -4 -10z"/>
<path d="M1540 456 c0 -9 5 -16 10 -16 6 0 10 4 10 9 0 6 -4 13 -10 16 -5 3
-10 -1 -10 -9z"/>
<path d="M1342 419 c1 -13 8 -23 13 -21 15 3 12 35 -3 40 -9 3 -13 -3 -10 -19z"/>
<path d="M1396 391 c-3 -5 1 -14 9 -21 12 -10 15 -10 15 3 0 19 -16 31 -24 18z"/>
<path d="M1380 350 c0 -5 5 -10 11 -10 5 0 7 5 4 10 -3 6 -8 10 -11 10 -2 0
-4 -4 -4 -10z"/>
<path d="M210 2504 c0 -8 5 -12 10 -9 6 3 10 10 10 16 0 5 -4 9 -10 9 -5 0
-10 -7 -10 -16z"/>
<path d="M215 2417 c-4 -10 -5 -21 -1 -24 10 -10 18 4 13 24 -4 17 -4 17 -12
0z"/>
<path d="M220 2240 c0 -24 15 -27 24 -4 9 22 8 24 -9 24 -8 0 -15 -9 -15 -20z"/>
<path d="M220 2099 c0 -18 2 -19 15 -9 8 7 15 16 15 21 0 5 -7 9 -15 9 -9 0
-15 -9 -15 -21z"/>
<path d="M230 1813 c0 -18 5 -24 17 -21 26 5 28 34 3 41 -16 4 -20 0 -20 -20z"/>
<path d="M235 1690 c-7 -12 2 -30 16 -30 12 0 12 27 0 35 -5 3 -12 1 -16 -5z"/>
<path d="M740 1572 c0 -9 9 -23 20 -30 16 -10 20 -10 20 2 0 25 -12 46 -26 46
-8 0 -14 -8 -14 -18z"/>
<path d="M247 1413 c-4 -3 -7 -18 -7 -32 1 -25 1 -25 15 -7 23 30 15 63 -8 39z"/>
<path d="M240 1259 c0 -14 5 -19 17 -17 26 5 29 38 4 38 -15 0 -21 -6 -21 -21z"/>
<path d="M247 1173 c-4 -3 -7 -15 -7 -26 0 -19 1 -20 20 -2 11 10 20 22 20 27
0 10 -24 11 -33 1z"/>
<path d="M257 1013 c-11 -10 -8 -53 3 -53 10 0 30 32 30 49 0 12 -23 15 -33 4z"/>
<path d="M271 871 c-8 -5 -10 -14 -6 -21 6 -9 10 -8 17 4 12 21 7 28 -11 17z"/>
<path d="M250 571 c0 -11 5 -23 11 -27 16 -9 30 18 17 33 -15 19 -28 16 -28
-6z"/>
<path d="M260 488 c0 -21 5 -38 10 -38 13 0 13 40 0 60 -7 11 -10 5 -10 -22z"/>
<path d="M300 455 c-31 -16 -100 -98 -100 -118 0 -8 8 -24 18 -34 14 -16 27
-19 76 -15 l58 4 -5 51 c-4 29 -10 68 -14 89 -8 35 -9 36 -33 23z"/>
<path d="M54 163 c-10 -15 -20 -52 -22 -80 -4 -48 -3 -53 16 -53 19 0 21 7 24
78 2 42 3 78 2 80 -1 1 -9 -10 -20 -25z"/>
<path d="M156 121 c-3 -9 -8 -33 -12 -53 l-6 -38 142 0 143 0 -6 41 c-3 22 -8
44 -12 47 -3 4 -34 7 -68 8 -34 0 -64 2 -67 3 -3 1 -29 3 -57 5 -42 3 -54 0
-57 -13z"/>
</g>
</svg>
